PathFileType	4	(X/Y/Z)	C:/Users/beibeiliu/ov580/test_trc/User3\sequence.6_training_dense_left.trc
DataRate	CameraRate	NumFrames	NumMarkers	Units	OrigDataRate	OrigDataStartFrame	OrigNumFrames
120	120	21	19	mm	120	49	195
Frame#	Time	ThumbCMC			ThumbMCP			ThumbIP			ThumbTip			IndexMCP			IndexPIP			IndexTip			MiddleMCP			MiddlePIP			MiddleTip			RingMCP			RingPIP			RingTip			PinkyMCP			PinkyPIP			PinkyTip			BackHand1			BackHand2			BackHand3	
		X0	Y0	Z0	X1	Y1	Z1	X2	Y2	Z2	X3	Y3	Z3	X4	Y4	Z4	X5	Y5	Z5	X6	Y6	Z6	X7	Y7	Z7	X8	Y8	Z8	X9	Y9	Z9	X10	Y10	Z10	X11	Y11	Z11	X12	Y12	Z12	X13	Y13	Z13	X14	Y14	Z14	X15	Y15	Z15	X16	Y16	Z16	X17	Y17	Z17	X18	Y18	Z18	
48	0.4	-258.34	21.385	-0.749127	-252.097	31.9196	-34.3326	-265.386	25.6655	-61.2458	-288.29	8.21895	-67.3392	-303.294	41.0067	-56.101	-285.74	15.7822	-72.7225	-275.579	9.13483	-41.6479	-316.837	23.4802	-56.0925	-293.08	-3.27055	-64.1303	-285.297	-2.85665	-26.1691	-321.253	8.46682	-51.4561	-300.007	-13.1779	-56.0526	-287.356	-7.22842	-23.2105	-330.171	-9.54448	-46.0739	-303.82	-21.9746	-43.7829	-300.014	-15.7307	-14.1714	-326.642	17.1536	3.66472	-310.866	-2.48023	30.5691	-290.206	26.7936	14.3777	
49	0.408333	-247.163	18.0416	-2.11651	-244.285	28.3108	-32.2008	-263.38	27.3026	-57.5481	-285.519	14.5073	-59.7832	-293.09	46.4768	-60.3232	-281.708	26.0432	-79.6282	-267.917	9.49769	-49.1749	-305.961	31.5911	-60.3824	-290.167	5.90843	-70.1946	-279.286	-0.595656	-30.2828	-317.539	18.6947	-53.1192	-303.18	-5.57931	-59.9171	-289.086	-8.62096	-25.5572	-332.5	6.04936	-43.3343	-311.517	-11.5061	-52.0152	-299.606	-14.2053	-23.1519	-314.971	27.2958	4.65086	-303.114	6.36671	32.1924	-282.402	30.12	11.6369	
50	0.416667	-243.152	11.2561	-0.115603	-238.066	24.8476	-32.2042	-256.902	25.1735	-57.539	-280.004	14.3757	-61.4461	-280.999	50.7624	-54.8423	-271.929	25.2904	-78.2357	-265.396	7.76112	-50.2777	-296.339	35.8052	-56.7341	-287.141	6.62263	-68.9668	-274.591	-1.40775	-31.3791	-313.077	25.4279	-48.876	-302.291	1.67543	-64.5193	-286.476	-8.183	-32.8331	-321.4	13.3513	-41.7481	-310.062	-8.74926	-52.0258	-294.573	-11.6957	-27.2346	-306.858	28.1269	9.59467	-298.001	9.70479	29.1624	-271.717	31.5791	12.2237	
51	0.425	-238.839	6.17323	2.63029	-225.558	16.6495	-27.7378	-233.953	25.2258	-58.6385	-260.275	21.4142	-72.4497	-269.589	51.1024	-55.5628	-261.052	26.2436	-73.8248	-258.023	7.72653	-48.477	-283.107	37.9277	-54.7197	-275.181	5.04834	-62.6777	-273.865	-1.46942	-24.559	-297.566	25.2237	-49.8886	-290.113	-1.63975	-54.1619	-279.428	-6.63894	-20.5825	-318.261	19.8703	-40.9574	-300.923	-1.3771	-50.4626	-294.175	-11.1346	-21.0431	-297.914	32.5405	8.06127	-297.871	12.2607	31.561	-262.223	27.5289	17.7373	
52	0.433333	-227.669	4.8366	0.516214	-218.774	11.8647	-31.4364	-234.002	13.838	-61.2108	-262.181	12.0049	-64.6242	-255.587	50.4811	-55.7296	-254.979	24.9962	-74.9028	-251.799	6.72964	-50.4521	-276.581	39.7495	-56.9995	-267.448	11.0009	-68.6615	-261.439	0.501625	-30.4255	-289.432	28.7146	-51.9118	-282.385	1.22314	-57.929	-271.762	-5.66804	-25.7866	-309.923	18.788	-42.6801	-296.167	-5.81289	-47.7826	-283.307	-5.55955	-19.2757	-294.076	30.5205	7.94574	-289.791	10.3152	33.042	-258.064	27.3733	16.2683	
53	0.441667	-227.071	2.12604	3.58757	-210.081	10.2472	-26.9502	-224.924	18.4406	-56.1881	-248.807	14.132	-60.3935	-240.503	46.7794	-55.5612	-243.931	22.0095	-74.3501	-237.712	2.94042	-46.041	-264.578	39.0345	-55.6218	-260.017	10.3892	-69.2751	-257.477	-4.5319	-31.7269	-278.897	28.9394	-53.3086	-277.593	0.693865	-58.3467	-266.344	-6.49987	-25.0803	-296.41	20.1552	-44.2587	-282.289	-2.7341	-47.0866	-274.923	-4.54153	-16.3823	-285.041	35.9837	5.8415	-281.979	15.0107	29.8437	-249.275	27.6448	15.3189	
54	0.45	-217.697	4.21396	2.8731	-207.666	11.7213	-31.6187	-220.823	14.5765	-59.363	-249.684	11.523	-62.0681	-238.365	49.8513	-48.1454	-232.05	21.9639	-71.5405	-238.236	4.19709	-42.3157	-260.593	36.1315	-53.2069	-249.092	6.28732	-63.4347	-246.57	-3.09596	-25.2256	-273.255	28.9387	-50.1544	-263.868	-2.07522	-56.3145	-259.464	-8.50789	-26.195	-293.21	19.7532	-45.9104	-278.476	-3.3075	-53.5498	-264.193	-4.87227	-26.5646	-281.271	32.8153	5.36913	-278.961	9.60804	32.708	-245.196	27.5812	18.2922	
55	0.458333	-211.087	-10.0969	5.93458	-189.633	1.62342	-18.9393	-205.023	18.1354	-47.4977	-229.532	16.9822	-54.1402	-222.373	39.3781	-57.068	-227.5	19.9698	-79.0264	-227.374	-4.18983	-55.7757	-239.955	29.9164	-59.9993	-250.117	2.04642	-65.8524	-243.265	-6.5158	-24.8497	-261.829	26.7329	-50.0104	-259.416	-4.85479	-52.1885	-253.613	-8.46438	-19.7995	-273.584	22.9725	-43.2642	-272.377	-4.71261	-37.996	-260.141	-0.11647	-9.09802	-256.841	37.7478	5.52604	-258.041	15.2349	30.9946	-224.769	21.3517	14.4295	
56	0.466667	-199.336	-10.4939	5.74316	-189.025	-0.203467	-29.5806	-208.124	11.0407	-54.1731	-233.398	11.7987	-60.1491	-210.702	37.2845	-53.8471	-213.621	10.09	-74.4478	-215.287	-7.60574	-43.385	-232.343	33.8749	-54.7469	-231.429	0.353506	-66.6251	-233.058	-7.93492	-27.4479	-253.559	25.7662	-52.0265	-250.146	-6.08231	-54.9676	-246.043	-10.9038	-22.7916	-267.691	22.232	-43.9575	-259.573	-2.72855	-50.1303	-254.9	-7.09068	-16.5768	-250.276	33.0444	8.21304	-252.978	14.117	34.0246	-220.847	22.9013	15.4291	
57	0.475	-191.062	-6.734	3.79897	-180.805	-1.91036	-25.6396	-199.66	7.4781	-52.1748	-220.119	9.58322	-65.0262	-204.169	33.4594	-59.1297	-209.753	4.07078	-72.6521	-211.734	-9.46063	-43.6415	-226.335	23.3516	-59.6947	-226.015	-9.6312	-59.6125	-223.506	-11.3539	-22.1638	-247.271	16.8685	-53.064	-241.137	-10.7639	-52.1303	-236.308	-11.795	-16.3712	-261.421	17.8875	-43.7807	-253.207	-10.9365	-43.3733	-247.463	-11.1538	-15.8074	-245.051	33.2427	5.73072	-249.999	16.5245	31.0175	-212.228	23.8597	15.7586	
58	0.483333	-183.946	-12.4649	10.3113	-169.046	-9.52404	-21.2221	-182.479	-3.36114	-47.1145	-207.557	1.45547	-60.2251	-194.088	25.9753	-55.0716	-196.842	-1.39179	-74.4508	-207.174	-15.6207	-46.2085	-216.978	19.7505	-57.5072	-217.509	-15.2728	-58.1882	-220.512	-13.1109	-19.4393	-234.412	15.8629	-50.3649	-234.533	-15.5118	-48.0409	-229.529	-14.229	-14.8663	-249.175	13.0347	-44.1063	-244.692	-14.4591	-42.1055	-237.418	-22.9669	-13.7801	-235.672	34.6842	3.07382	-236.132	18.3569	28.4803	-205.058	19.6321	14.8944	
59	0.491667	-177.218	-11.6578	13.1859	-162.584	-11.4487	-19.6385	-180.318	-7.98312	-46.6244	-204.942	-9.44931	-55.1278	-187.697	16.0173	-59.4527	-193.06	-14.8974	-69.734	-196.078	-22.2964	-37.6342	-206.274	8.5737	-59.3363	-212.116	-23.0892	-58.5847	-212.91	-18.0065	-15.8702	-229.62	7.57153	-51.4685	-227.992	-24.5901	-45.5054	-218.794	-21.3604	-16.3326	-243.452	3.00684	-45.6496	-240.165	-22.9325	-33.0821	-231.845	-12.9736	-6.05422	-227.636	33.7393	-1.6755	-229.974	20.2583	29.2535	-194.695	20.7356	15.8587	
60	0.5	-174.527	-11.3151	13.1384	-163.722	-22.2445	-18.4103	-174.137	-28.4617	-46.5361	-182.289	-32.4183	-67.1394	-182.38	13.3745	-53.9975	-182.222	-18.0996	-66.0039	-191.005	-24.7223	-30.6652	-202.436	3.09379	-54.7444	-201.685	-29.5028	-51.5319	-200.661	-19.6213	-9.08993	-221.004	-1.03943	-47.4454	-218.961	-32.4765	-37.5876	-210.363	-20.7945	-6.80859	-238.472	-4.98351	-40.3599	-228.611	-29.427	-29.6554	-226.189	-18.6363	-1.55912	-225.177	26.7288	0.680201	-229.775	18.0794	29.2682	-193.631	21.685	19.2535	
61	0.508333	-170.492	-11.3237	19.5178	-154.189	-27.2557	-6.97606	-169.896	-35.7287	-37.4286	-192.85	-39.4153	-43.3678	-174.234	-2.19783	-53.553	-176.051	-34.6358	-57.0437	-179.372	-33.5591	-21.5226	-194.21	-9.56215	-55.9445	-194.063	-41.6886	-47.5857	-199.77	-32.4296	-10.7612	-214.791	-17.7721	-48.0943	-208.29	-41.445	-34.8137	-208.148	-25.9267	-1.18582	-228.208	-18.4618	-39.3654	-225.584	-39.0915	-20.2642	-220.35	-19.9447	2.99374	-221.307	24.1477	-4.38056	-225.087	19.24	24.5887	-186.899	20.5393	15.771	
62	0.516667	-163.045	-16.4078	23.807	-147.439	-33.3956	-3.88856	-162.17	-41.0791	-30.2555	-188.639	-42.6818	-37.6683	-169.507	-13.6701	-51.4547	-172.8	-47.8579	-50.2216	-180.805	-43.4523	-19.3317	-191.004	-21.8844	-50.9271	-194.905	-51.1867	-34.2371	-193.039	-31.5889	-1.49694	-207.811	-24.0865	-43.0769	-210.685	-48.7919	-24.688	-203.694	-28.2482	3.72215	-224.161	-20.6378	-36.1137	-220.639	-44.0686	-17.813	-216.883	-24.2559	4.53372	-212.897	19.4573	-5.4618	-215.231	18.6838	27.9381	-181.387	14.6713	15.9949	
63	0.525	-156.493	-22.1526	26.5391	-139.653	-40.3138	2.26797	-150.597	-51.9989	-27.4725	-178.685	-48.9075	-34.2654	-158.977	-24.5458	-49.4479	-168.543	-56.2054	-49.6364	-177.588	-50.9559	-18.4342	-186.118	-28.0074	-50.0763	-189.479	-58.2154	-39.0836	-190.758	-39.8618	-1.57562	-204.896	-29.9762	-43.3308	-206.383	-56.3005	-27.0207	-198.585	-47.4663	3.17781	-221.954	-24.6618	-34.8585	-216.2	-49.039	-19.2007	-215.635	-38.4143	7.65938	-200.269	15.533	-3.86137	-208.302	16.3686	30.6964	-173.836	9.76153	16.8834	
64	0.533333	-154.895	-23.4655	25.7972	-146.5	-45.7644	-5.55852	-166.706	-56.6411	-31.8694	-192.073	-56.1795	-29.607	-162.434	-34.9434	-45.7068	-159.634	-64.637	-35.3017	-163.148	-49.9942	-3.65474	-182.002	-41.2179	-45.3693	-183.373	-67.5475	-29.1015	-180.031	-53.7231	8.03371	-197.061	-39.9361	-38.7966	-198.47	-62.8592	-17.7236	-189.069	-40.9881	7.76594	-218.273	-39.2778	-32.7358	-208.379	-59.8631	-15.5118	-203.863	-40.6658	9.41512	-205.796	5.55124	-7.50155	-208.446	10.2703	23.8043	-173.64	8.33183	11.7382	
65	0.541667	-153.457	-23.9323	27.9429	-137.172	-48.7354	0.708116	-153.652	-63.4057	-17.4404	-181.195	-65.7031	-22.9761	-150.566	-39.3641	-44.4759	-152.08	-70.8784	-36.3381	-162.34	-63.3894	-5.58888	-175.264	-47.4921	-40.7286	-173.282	-75.6894	-22.035	-177.619	-52.6921	13.7948	-193.464	-52.0857	-33.8753	-191.604	-71.2687	-8.30953	-189.721	-42.5182	13.1404	-209.072	-54.5189	-26.452	-202.409	-67.4686	-0.875203	-199.664	-46.8348	19.3415	-203.662	-2.41258	-5.27014	-208.821	5.20592	21.5398	-174.35	5.08259	9.90205	
66	0.55	-145.025	-28.6971	24.2773	-136.576	-50.9123	2.1062	-151.087	-69.359	-21.8666	-179.527	-74.8684	-25.7749	-153.381	-50.5329	-40.7158	-148.681	-79.5321	-25.3695	-153.25	-62.3462	4.22397	-169.765	-60.7727	-38.9522	-166.556	-81.6509	-13.5875	-176.624	-55.5486	10.8457	-192.787	-59.9777	-29.3833	-185.122	-77.5815	-3.24532	-183.148	-50.1947	15.3157	-206.702	-64.5607	-20.588	-195.067	-72.4731	-0.147755	-197.513	-42.3056	16.4095	-202.044	-9.44851	-6.97768	-204.789	-0.0766647	22.8616	-170.386	-0.203471	11.3788	
67	0.558333	-143.973	-26.41	31.2304	-127.374	-60.4707	12.4306	-140.679	-85.5288	-3.05552	-165.424	-89.4106	-6.17177	-137.72	-60.4608	-31.7102	-137.832	-82.3118	-10.1761	-146.556	-56.422	12.7695	-159.52	-71.9275	-30.5897	-149.848	-86.3453	-5.07441	-161.841	-54.4067	16.6597	-175.061	-71.3858	-23.5475	-167.412	-83.8555	6.20814	-174.294	-52.6421	19.7816	-192.631	-73.2056	-16.6889	-185.217	-79.7283	11.8064	-193.094	-56.0379	22.3529	-199.713	-23.2666	-8.33719	-207.253	-9.95854	19.2949	-168.842	-4.33896	8.26816	
68	0.566667	-139.551	-24.1256	36.4323	-118.535	-48.4555	19.0414	-122.449	-73.94	1.45497	-149.909	-84.8935	-6.12795	-132.218	-66.3127	-24.7126	-131.389	-86.3906	0.220278	-138.877	-62.746	20.1842	-151.978	-71.8593	-26.246	-144.667	-90.2333	3.73598	-160.383	-60.5819	21.6473	-168.515	-79.64	-17.5922	-163.147	-89.9293	8.35589	-172.513	-60.9418	25.2936	-185.65	-81.8862	-12.1179	-180.062	-84.9904	13.5865	-186.595	-59.0867	23.1844	-190.003	-27.2597	-9.87927	-203.019	-13.7415	15.9476	-165.646	-9.93645	12.656	
